<svg width="756" height="756" xmlns="http://www.w3.org/2000/svg" xmlns:xlink="http://www.w3.org/1999/xlink" overflow="hidden"><g><rect x="0" y="0" width="756" height="756" fill="#D0B6F0"/><path d="M226 281.167C226 248.49 294.053 222 378 222 461.947 222 530 248.49 530 281.167L530 517.833C530 550.51 461.947 577 378 577 294.053 577 226 550.51 226 517.833Z" fill-rule="evenodd"/><path d="M68 302.5 378 179 688 302.5 378 426Z" stroke="#D0B6F0" stroke-width="20.3378" stroke-miterlimit="8" fill-rule="evenodd"/><rect x="163" y="299" width="17" height="182"/><path d="M156 497C156 488.163 162.94 481 171.5 481 180.06 481 187 488.163 187 497L187 561C187 569.837 180.06 577 171.5 577 162.94 577 156 569.837 156 561Z" fill-rule="evenodd"/><path d="M145 481C145 466.088 157.088 454 172 454 186.912 454 199 466.088 199 481 199 495.912 186.912 508 172 508 157.088 508 145 495.912 145 481Z" fill-rule="evenodd"/></g></svg>