<svg width="756" height="756" xmlns="http://www.w3.org/2000/svg" xmlns:xlink="http://www.w3.org/1999/xlink" overflow="hidden"><g><rect x="0" y="0" width="756" height="756" fill="#D0B6F0"/><path d="M148 449.5C148 368.59 213.59 303 294.5 303 375.41 303 441 368.59 441 449.5 441 530.41 375.41 596 294.5 596 213.59 596 148 530.41 148 449.5Z" fill-rule="evenodd"/><path d="M142 449.5C142 365.277 210.277 297 294.5 297 378.723 297 447 365.277 447 449.5 447 533.723 378.723 602 294.5 602 210.277 602 142 533.723 142 449.5Z" stroke="#000000" stroke-width="19.671" stroke-miterlimit="8" stroke-dasharray="78.684 59.013" fill="none" fill-rule="evenodd"/><path d="M216 449.5C216 406.146 251.146 371 294.5 371 337.854 371 373 406.146 373 449.5 373 492.854 337.854 528 294.5 528 251.146 528 216 492.854 216 449.5Z" fill="#D0B6F0" fill-rule="evenodd"/><path d="M394 266.5C394 207.129 442.129 159 501.5 159 560.871 159 609 207.129 609 266.5 609 325.871 560.871 374 501.5 374 442.129 374 394 325.871 394 266.5Z" fill-rule="evenodd"/><path d="M389 266.5C389 204.368 439.368 154 501.5 154 563.632 154 614 204.368 614 266.5 614 328.632 563.632 379 501.5 379 439.368 379 389 328.632 389 266.5Z" stroke="#000000" stroke-width="19.671" stroke-miterlimit="8" stroke-dasharray="78.684 59.013" fill="none" fill-rule="evenodd"/><path d="M444 266.5C444 234.744 469.744 209 501.5 209 533.256 209 559 234.744 559 266.5 559 298.256 533.256 324 501.5 324 469.744 324 444 298.256 444 266.5Z" fill="#D0B6F0" fill-rule="evenodd"/></g></svg>