<svg width="756" height="756" xmlns="http://www.w3.org/2000/svg" xmlns:xlink="http://www.w3.org/1999/xlink" overflow="hidden"><g><rect x="0" y="0" width="756" height="756" fill="#D0B6F0"/><path d="M167 230C167 196.311 194.311 169 228 169 261.689 169 289 196.311 289 230 289 263.689 261.689 291 228 291 194.311 291 167 263.689 167 230Z" fill-rule="evenodd"/><path d="M167 378C167 344.311 194.311 317 228 317 261.689 317 289 344.311 289 378 289 411.689 261.689 439 228 439 194.311 439 167 411.689 167 378Z" fill-rule="evenodd"/><path d="M167 526C167 492.311 194.311 465 228 465 261.689 465 289 492.311 289 526 289 559.689 261.689 587 228 587 194.311 587 167 559.689 167 526Z" fill-rule="evenodd"/><path d="M467 304C467 270.311 494.311 243 528 243 561.689 243 589 270.311 589 304 589 337.689 561.689 365 528 365 494.311 365 467 337.689 467 304Z" fill-rule="evenodd"/><path d="M467 452C467 418.311 494.311 391 528 391 561.689 391 589 418.311 589 452 589 485.689 561.689 513 528 513 494.311 513 467 485.689 467 452Z" fill-rule="evenodd"/><path d="M289.5 230.5 467.769 304.295" stroke="#000000" stroke-width="8.66858" stroke-miterlimit="8" fill="none" fill-rule="evenodd"/><path d="M289.5 230.5 467.769 452.034" stroke="#000000" stroke-width="8.66858" stroke-miterlimit="8" fill="none" fill-rule="evenodd"/><path d="M0 0 178.269 73.7948" stroke="#000000" stroke-width="8.66858" stroke-miterlimit="8" fill="none" fill-rule="evenodd" transform="matrix(1 0 0 -1 289.5 378.295)"/><path d="M289.5 378.5 467.769 452.444" stroke="#000000" stroke-width="8.66858" stroke-miterlimit="8" fill="none" fill-rule="evenodd"/><path d="M0 0 178.269 73.9442" stroke="#000000" stroke-width="8.66858" stroke-miterlimit="8" fill="none" fill-rule="evenodd" transform="matrix(1 0 0 -1 289.5 526.444)"/><path d="M0 0 178.269 221.683" stroke="#000000" stroke-width="8.66858" stroke-miterlimit="8" fill="none" fill-rule="evenodd" transform="matrix(1 0 0 -1 289.5 526.183)"/></g></svg>