<svg width="1008" height="756" xmlns="http://www.w3.org/2000/svg" xmlns:xlink="http://www.w3.org/1999/xlink" overflow="hidden"><defs><filter id="fx0" x="-10%" y="-10%" width="120%" height="120%" filterUnits="userSpaceOnUse" primitiveUnits="userSpaceOnUse"><feComponentTransfer color-interpolation-filters="sRGB"><feFuncR type="discrete" tableValues="0 0"/><feFuncG type="discrete" tableValues="0 0"/><feFuncB type="discrete" tableValues="0 0"/><feFuncA type="linear" slope="0.4" intercept="0"/></feComponentTransfer><feGaussianBlur stdDeviation="1.77807 1.77817"/></filter><filter id="fx1" x="-10%" y="-10%" width="120%" height="120%" filterUnits="userSpaceOnUse" primitiveUnits="userSpaceOnUse"><feComponentTransfer color-interpolation-filters="sRGB"><feFuncR type="discrete" tableValues="0 0"/><feFuncG type="discrete" tableValues="0 0"/><feFuncB type="discrete" tableValues="0 0"/><feFuncA type="linear" slope="0.4" intercept="0"/></feComponentTransfer><feGaussianBlur stdDeviation="1.77807 1.77817"/></filter><filter id="fx2" x="-10%" y="-10%" width="120%" height="120%" filterUnits="userSpaceOnUse" primitiveUnits="userSpaceOnUse"><feComponentTransfer color-interpolation-filters="sRGB"><feFuncR type="discrete" tableValues="0 0"/><feFuncG type="discrete" tableValues="0 0"/><feFuncB type="discrete" tableValues="0 0"/><feFuncA type="linear" slope="0.4" intercept="0"/></feComponentTransfer><feGaussianBlur stdDeviation="1.77807 1.77817"/></filter><filter id="fx3" x="-10%" y="-10%" width="120%" height="120%" filterUnits="userSpaceOnUse" primitiveUnits="userSpaceOnUse"><feComponentTransfer color-interpolation-filters="sRGB"><feFuncR type="discrete" tableValues="0 0"/><feFuncG type="discrete" tableValues="0 0"/><feFuncB type="discrete" tableValues="0 0"/><feFuncA type="linear" slope="0.4" intercept="0"/></feComponentTransfer><feGaussianBlur stdDeviation="1.77807 1.77817"/></filter><clipPath id="clip4"><rect x="0" y="0" width="1008" height="756"/></clipPath><clipPath id="clip5"><path d="M342.668 69.0038C313.028 69.0038 289 93.033 289 122.675L289 337.351C289 366.992 313.028 391.022 342.668 391.022L665.332 391.022C694.972 391.022 719 366.992 719 337.351L719 122.675C719 93.033 694.972 69.0038 665.332 69.0038ZM1.50204e-05 1.12653e-05 1008 1.12653e-05 1008 756 1.50204e-05 756Z" fill-rule="evenodd" clip-rule="evenodd"/></clipPath></defs><g clip-path="url(#clip4)"><rect x="0" y="0" width="1008" height="756.042" fill="#E8E8E8"/><g clip-path="url(#clip5)"><g filter="url(#fx0)" transform="translate(283 63)"><g><path d="M8.82892 62.5035C8.82892 32.862 32.8568 8.83282 62.4966 8.83282L385.161 8.83282C414.801 8.83282 438.829 32.862 438.829 62.5035L438.829 277.18C438.829 306.821 414.801 330.851 385.161 330.851L62.4966 330.851C32.8568 330.851 8.82892 306.821 8.82892 277.18Z" stroke="#000000" stroke-width="4" stroke-miterlimit="8" fill="#D0B6F0" fill-rule="evenodd"/></g></g></g><path d="M289 122.674C289 93.033 313.028 69.0038 342.668 69.0038L665.332 69.0038C694.972 69.0038 719 93.033 719 122.674L719 337.351C719 366.992 694.972 391.022 665.332 391.022L342.668 391.022C313.028 391.022 289 366.992 289 337.351Z" stroke="#000000" stroke-width="4.00066" stroke-miterlimit="8" fill="#D0B6F0" fill-rule="evenodd"/><path d="M376 141.008C376 120.572 392.565 104.006 413 104.006 433.435 104.006 450 120.572 450 141.008 450 161.443 433.435 178.01 413 178.01 392.565 178.01 376 161.443 376 141.008Z" fill-rule="evenodd"/><path d="M376 230.013C376 209.577 392.565 193.011 413 193.011 433.435 193.011 450 209.577 450 230.013 450 250.448 433.435 267.015 413 267.015 392.565 267.015 376 250.448 376 230.013Z" fill-rule="evenodd"/><path d="M376 320.018C376 299.582 392.565 283.016 413 283.016 433.435 283.016 450 299.582 450 320.018 450 340.453 433.435 357.02 413 357.02 392.565 357.02 376 340.453 376 320.018Z" fill-rule="evenodd"/><path d="M558 185.51C558 165.351 574.565 149.008 595 149.008 615.435 149.008 632 165.351 632 185.51 632 205.67 615.435 222.012 595 222.012 574.565 222.012 558 205.67 558 185.51Z" fill-rule="evenodd"/><path d="M558 275.015C558 254.579 574.565 238.013 595 238.013 615.435 238.013 632 254.579 632 275.015 632 295.451 615.435 312.017 595 312.017 574.565 312.017 558 295.451 558 275.015Z" fill-rule="evenodd"/><path d="M450.5 141.508 558.407 186.179" stroke="#000000" stroke-width="8.6681" stroke-miterlimit="8" fill="none" fill-rule="evenodd"/><path d="M450.5 141.508 558.407 275.611" stroke="#000000" stroke-width="8.6681" stroke-miterlimit="8" fill="none" fill-rule="evenodd"/><path d="M0 0 107.907 44.6683" stroke="#000000" stroke-width="8.6681" stroke-miterlimit="8" fill="none" fill-rule="evenodd" transform="matrix(1 0 0 -1.00006 450.5 231.181)"/><path d="M450.5 230.513 558.407 275.274" stroke="#000000" stroke-width="8.6681" stroke-miterlimit="8" fill="none" fill-rule="evenodd"/><path d="M0 0 107.907 44.7587" stroke="#000000" stroke-width="8.6681" stroke-miterlimit="8" fill="none" fill-rule="evenodd" transform="matrix(1 0 0 -1.00006 450.5 320.276)"/><path d="M0 0 107.907 134.186" stroke="#000000" stroke-width="8.6681" stroke-miterlimit="8" fill="none" fill-rule="evenodd" transform="matrix(1 0 0 -1.00006 450.5 320.703)"/><g filter="url(#fx1)" transform="translate(389 487)"><g><path d="M8.82892 36.1917C8.82892 21.0948 21.0667 8.85626 36.1628 8.85626L199.495 8.85626C214.591 8.85626 226.829 21.0948 226.829 36.1917L226.829 145.53C226.829 160.627 214.591 172.865 199.495 172.865L36.1628 172.865C21.0667 172.865 8.82892 160.627 8.82892 145.53Z" stroke="#000000" stroke-width="4" stroke-miterlimit="8" fill="#DAE3F3" fill-rule="evenodd"/><path d="M27.8289 49.5256C27.8289 38.1108 37.0819 28.8573 48.496 28.8573L187.162 28.8573C198.576 28.8573 207.829 38.1108 207.829 49.5256L207.829 132.196C207.829 143.611 198.576 152.864 187.162 152.864L48.496 152.864C37.0819 152.864 27.8289 143.611 27.8289 132.196Z" stroke="#000000" stroke-width="4" stroke-miterlimit="8" fill="#FFFFFF" fill-rule="evenodd"/></g></g><path d="M395 520.363C395 505.266 407.238 493.027 422.334 493.027L585.666 493.027C600.762 493.027 613 505.266 613 520.363L613 629.701C613 644.798 600.762 657.036 585.666 657.036L422.334 657.036C407.238 657.036 395 644.798 395 629.701Z" stroke="#000000" stroke-width="4.00066" stroke-miterlimit="8" fill="#DAE3F3" fill-rule="evenodd"/><path d="M414 533.697C414 522.282 423.253 513.028 434.667 513.028L573.333 513.028C584.747 513.028 594 522.282 594 533.697L594 616.367C594 627.782 584.747 637.035 573.333 637.035L434.667 637.035C423.253 637.035 414 627.782 414 616.367Z" stroke="#000000" stroke-width="4.00066" stroke-miterlimit="8" fill="#FFFFFF" fill-rule="evenodd"/><g filter="url(#fx2)" transform="translate(667 487)"><g><path d="M8.82886 36.1917C8.82886 21.0948 21.0667 8.85626 36.1628 8.85626L199.495 8.85626C214.591 8.85626 226.829 21.0948 226.829 36.1917L226.829 145.53C226.829 160.627 214.591 172.865 199.495 172.865L36.1628 172.865C21.0667 172.865 8.82886 160.627 8.82886 145.53Z" stroke="#000000" stroke-width="4" stroke-miterlimit="8" fill="#FFC5C5" fill-rule="evenodd"/><path d="M26.8289 49.5256C26.8289 38.1108 36.0819 28.8573 47.4961 28.8573L187.162 28.8573C198.576 28.8573 207.829 38.1108 207.829 49.5256L207.829 132.196C207.829 143.611 198.576 152.864 187.162 152.864L47.4961 152.864C36.0819 152.864 26.8289 143.611 26.8289 132.196Z" stroke="#000000" stroke-width="4" stroke-miterlimit="8" fill="#FFFFFF" fill-rule="evenodd"/></g></g><path d="M673 520.363C673 505.266 685.238 493.027 700.334 493.027L863.666 493.027C878.762 493.027 891 505.266 891 520.363L891 629.701C891 644.798 878.762 657.036 863.666 657.036L700.334 657.036C685.238 657.036 673 644.798 673 629.701Z" stroke="#000000" stroke-width="4.00066" stroke-miterlimit="8" fill="#FFC5C5" fill-rule="evenodd"/><path d="M691 533.697C691 522.282 700.253 513.028 711.667 513.028L851.333 513.028C862.747 513.028 872 522.282 872 533.697L872 616.367C872 627.782 862.747 637.035 851.333 637.035L711.667 637.035C700.253 637.035 691 627.782 691 616.367Z" stroke="#000000" stroke-width="4.00066" stroke-miterlimit="8" fill="#FFFFFF" fill-rule="evenodd"/><g filter="url(#fx3)" transform="translate(111 487)"><g><path d="M8.82892 36.1917C8.82892 21.0947 21.0667 8.85626 36.1628 8.85626L199.495 8.85626C214.591 8.85626 226.829 21.0947 226.829 36.1917L226.829 145.53C226.829 160.627 214.591 172.865 199.495 172.865L36.1628 172.865C21.0667 172.865 8.82892 160.627 8.82892 145.53Z" stroke="#000000" stroke-width="4" stroke-miterlimit="8" fill="#F8CBAD" fill-rule="evenodd"/><path d="M27.8289 49.5256C27.8289 38.1108 37.0819 28.8573 48.4961 28.8573L188.162 28.8573C199.576 28.8573 208.829 38.1108 208.829 49.5256L208.829 132.196C208.829 143.611 199.576 152.864 188.162 152.864L48.4961 152.864C37.0819 152.864 27.8289 143.611 27.8289 132.196Z" stroke="#000000" stroke-width="4" stroke-miterlimit="8" fill="#FFFFFF" fill-rule="evenodd"/></g></g><path d="M117 520.363C117 505.266 129.238 493.027 144.334 493.027L307.666 493.027C322.762 493.027 335 505.266 335 520.363L335 629.701C335 644.798 322.762 657.036 307.666 657.036L144.334 657.036C129.238 657.036 117 644.798 117 629.701Z" stroke="#000000" stroke-width="4.00066" stroke-miterlimit="8" fill="#F8CBAD" fill-rule="evenodd"/><path d="M136 533.697C136 522.282 145.253 513.028 156.667 513.028L296.333 513.028C307.747 513.028 317 522.282 317 533.697L317 616.367C317 627.782 307.747 637.035 296.333 637.035L156.667 637.035C145.253 637.035 136 627.782 136 616.367Z" stroke="#000000" stroke-width="4.00066" stroke-miterlimit="8" fill="#FFFFFF" fill-rule="evenodd"/><path d="M222.833 464.349 222.833 438.771 503.892 438.771 500.725 441.938 500.725 419.528 507.059 419.528 507.059 445.106 226 445.106 229.167 441.938 229.167 464.349ZM241.836 461.182 226 492.855 210.164 461.182ZM488.056 422.695 503.892 391.022 519.728 422.695Z"/><path d="M28.5047-3.16719 54.0812-3.16719 54.0812 277.892 50.914 274.724 73.3231 274.724 73.3231 281.059 47.7468 281.059 47.7468 0 50.914 3.16719 28.5047 3.16719ZM31.6719 15.836 0 0 31.6719-15.836ZM70.1559 262.056 101.828 277.892 70.1559 293.728Z" transform="matrix(-1.83697e-16 -1.00006 -1 1.83707e-16 781.892 492.855)"/><path d="M3.16725 28.5047 3.16734 73.3233-3.16704 73.3234-3.16713 28.5047ZM-15.8359 31.6719 0 0 15.836 31.6719ZM15.8361 70.1561 0.000210008 101.828-15.8358 70.1562Z" transform="matrix(-1 0 0 1.00006 504 391.022)"/></g></svg>