<svg width="1008" height="756" xmlns="http://www.w3.org/2000/svg" xmlns:xlink="http://www.w3.org/1999/xlink" overflow="hidden"><defs><filter id="fx0" x="-10%" y="-10%" width="120%" height="120%" filterUnits="userSpaceOnUse" primitiveUnits="userSpaceOnUse"><feComponentTransfer color-interpolation-filters="sRGB"><feFuncR type="discrete" tableValues="0 0"/><feFuncG type="discrete" tableValues="0 0"/><feFuncB type="discrete" tableValues="0 0"/><feFuncA type="linear" slope="0.4" intercept="0"/></feComponentTransfer><feGaussianBlur stdDeviation="2.22259 2.22271"/></filter><filter id="fx1" x="-10%" y="-10%" width="120%" height="120%" filterUnits="userSpaceOnUse" primitiveUnits="userSpaceOnUse"><feComponentTransfer color-interpolation-filters="sRGB"><feFuncR type="discrete" tableValues="0 0"/><feFuncG type="discrete" tableValues="0 0"/><feFuncB type="discrete" tableValues="0 0"/><feFuncA type="linear" slope="0.4" intercept="0"/></feComponentTransfer><feGaussianBlur stdDeviation="2.22259 2.22271"/></filter><clipPath id="clip2"><rect x="0" y="0" width="1008" height="756"/></clipPath></defs><g clip-path="url(#clip2)"><rect x="0" y="0" width="1008" height="756.042" fill="#E8E8E8"/><g filter="url(#fx0)" transform="translate(191 74)"><g><path d="M7.90002 25.7651C7.90002 15.8292 15.9543 7.77453 25.8897 7.77453L340.11 7.77453C350.046 7.77453 358.1 15.8292 358.1 25.7651L358.1 486.271C358.1 496.207 350.046 504.262 340.11 504.262L25.8897 504.262C15.9543 504.262 7.90002 496.207 7.90002 486.271Z" fill="#FFFFFF" fill-rule="evenodd"/></g></g><path d="M204 106.472C204 96.825 211.82 89.0049 221.466 89.0049L526.534 89.0049C536.18 89.0049 544 96.825 544 106.472L544 553.565C544 563.211 536.18 571.032 526.534 571.032L221.466 571.032C211.82 571.032 204 563.211 204 553.565Z" fill="#FFFFFF" fill-rule="evenodd"/><path d="M217 124.444C217 112.604 226.598 103.006 238.437 103.006L509.563 103.006C521.402 103.006 531 112.604 531 124.444L531 382.584C531 394.424 521.402 404.022 509.563 404.022L238.437 404.022C226.598 404.022 217 394.424 217 382.584Z" fill="#E8E8E8" fill-rule="evenodd"/><text font-family="Source Sans Pro,Source Sans Pro_MSFontService,sans-serif" font-weight="700" font-size="37" transform="matrix(1 0 0 1.00006 226.741 459)">Data duct</text><text font-family="Source Sans Pro,Source Sans Pro_MSFontService,sans-serif" font-weight="400" font-size="32" transform="matrix(1 0 0 1.00006 226.741 507)">A reliable data</text><text font-family="Source Sans Pro,Source Sans Pro_MSFontService,sans-serif" font-weight="400" font-size="32" transform="matrix(1 0 0 1.00006 226.741 545)">pipeline</text><path d="M308.049 187.498C308.2 169.496 338.126 155.154 374.89 155.464 411.653 155.773 441.333 170.617 441.182 188.619L440.084 318.998C439.933 336.999 410.007 351.341 373.243 351.032 336.48 350.722 306.8 335.878 306.951 317.877Z" fill="#D0B6F0" fill-rule="evenodd"/><path d="M441.182 188.619C441.03 206.62 411.104 220.963 374.341 220.653 337.577 220.344 307.897 205.5 308.049 187.498" stroke="#172C51" stroke-width="4.00066" stroke-miterlimit="8" fill="none" fill-rule="evenodd"/><path d="M308.049 187.498C308.2 169.496 338.126 155.154 374.89 155.464 411.653 155.773 441.333 170.617 441.182 188.619L440.084 318.998C439.933 336.999 410.007 351.341 373.243 351.032 336.48 350.722 306.8 335.878 306.951 317.877Z" stroke="#172C51" stroke-width="4.00066" stroke-miterlimit="8" fill="none" fill-rule="evenodd"/><g filter="url(#fx1)" transform="translate(451 170)"><g><path d="M7.89996 25.7704C7.89996 15.8345 15.9542 7.77983 25.8896 7.77983L340.11 7.77983C350.046 7.77983 358.1 15.8345 358.1 25.7704L358.1 486.277C358.1 496.213 350.046 504.267 340.11 504.267L25.8896 504.267C15.9542 504.267 7.89996 496.213 7.89996 486.277Z" fill="#FFFFFF" fill-rule="evenodd"/></g></g><path d="M464 202.477C464 192.83 471.82 185.01 481.466 185.01L786.534 185.01C796.18 185.01 804 192.83 804 202.477L804 649.57C804 659.217 796.18 667.037 786.534 667.037L481.466 667.037C471.82 667.037 464 659.217 464 649.57Z" fill="#FFFFFF" fill-rule="evenodd"/><path d="M477 219.449C477 207.609 486.598 198.011 498.437 198.011L769.563 198.011C781.402 198.011 791 207.609 791 219.449L791 477.589C791 489.429 781.402 499.027 769.563 499.027L498.437 499.027C486.598 499.027 477 489.429 477 477.589Z" fill="#E8E8E8" fill-rule="evenodd"/><text font-family="Source Sans Pro,Source Sans Pro_MSFontService,sans-serif" font-weight="700" font-size="37" transform="matrix(1 0 0 1.00006 486.607 555)">Quick</text><text font-family="Source Sans Pro,Source Sans Pro_MSFontService,sans-serif" font-weight="700" font-size="37" transform="matrix(1 0 0 1.00006 581.623 555)">-</text><text font-family="Source Sans Pro,Source Sans Pro_MSFontService,sans-serif" font-weight="700" font-size="37" transform="matrix(1 0 0 1.00006 593.958 555)">solve</text><text font-family="Source Sans Pro,Source Sans Pro_MSFontService,sans-serif" font-weight="400" font-size="32" transform="matrix(1 0 0 1.00006 486.607 603)">A</text><text font-family="Source Sans Pro,Source Sans Pro_MSFontService,sans-serif" font-weight="400" font-size="32" transform="matrix(1 0 0 1.00006 510.278 603)">fast,</text><text font-family="Source Sans Pro,Source Sans Pro_MSFontService,sans-serif" font-weight="400" font-size="32" transform="matrix(1 0 0 1.00006 574.289 603)">effective</text><text font-family="Source Sans Pro,Source Sans Pro_MSFontService,sans-serif" font-weight="400" font-size="32" transform="matrix(1 0 0 1.00006 486.607 641)">optimization engine</text><path d="M508 234.013C528.103 334.144 548.205 434.276 593.039 451.276 637.872 468.276 748.075 356.245 777 336.014" stroke="#7D31D6" stroke-width="8.00132" stroke-miterlimit="8" fill="none" fill-rule="evenodd"/><path d="M588 450.525C588 442.516 594.492 436.024 602.5 436.024 610.508 436.024 617 442.516 617 450.525 617 458.533 610.508 465.026 602.5 465.026 594.492 465.026 588 458.533 588 450.525Z" fill="#00B0F0" fill-rule="evenodd"/></g></svg>