<svg width="1008" height="756" xmlns="http://www.w3.org/2000/svg" xmlns:xlink="http://www.w3.org/1999/xlink" overflow="hidden"><defs><filter id="fx0" x="-10%" y="-10%" width="120%" height="120%" filterUnits="userSpaceOnUse" primitiveUnits="userSpaceOnUse"><feComponentTransfer color-interpolation-filters="sRGB"><feFuncR type="discrete" tableValues="0 0"/><feFuncG type="discrete" tableValues="0 0"/><feFuncB type="discrete" tableValues="0 0"/><feFuncA type="linear" slope="0.4" intercept="0"/></feComponentTransfer><feGaussianBlur stdDeviation="2.22259 2.22271"/></filter><filter id="fx1" x="-10%" y="-10%" width="120%" height="120%" filterUnits="userSpaceOnUse" primitiveUnits="userSpaceOnUse"><feComponentTransfer color-interpolation-filters="sRGB"><feFuncR type="discrete" tableValues="0 0"/><feFuncG type="discrete" tableValues="0 0"/><feFuncB type="discrete" tableValues="0 0"/><feFuncA type="linear" slope="0.4" intercept="0"/></feComponentTransfer><feGaussianBlur stdDeviation="2.22259 2.22271"/></filter><filter id="fx2" x="-10%" y="-10%" width="120%" height="120%" filterUnits="userSpaceOnUse" primitiveUnits="userSpaceOnUse"><feComponentTransfer color-interpolation-filters="sRGB"><feFuncR type="discrete" tableValues="0 0"/><feFuncG type="discrete" tableValues="0 0"/><feFuncB type="discrete" tableValues="0 0"/><feFuncA type="linear" slope="0.4" intercept="0"/></feComponentTransfer><feGaussianBlur stdDeviation="2.22259 2.22271"/></filter><clipPath id="clip3"><rect x="0" y="0" width="1008" height="756"/></clipPath></defs><g clip-path="url(#clip3)"><rect x="0" y="0" width="1008" height="756.042" fill="#E8E8E8"/><g filter="url(#fx0)" transform="translate(67 208)"><g><path d="M8.09472 25.3555C8.09472 15.799 15.8414 8.05193 25.3974 8.05193L327.621 8.05193C337.177 8.05193 344.924 15.799 344.924 25.3555L344.924 468.695C344.924 478.251 337.177 485.998 327.621 485.998L25.3974 485.998C15.8414 485.998 8.09472 478.251 8.09472 468.695Z" fill="#FFFFFF" fill-rule="evenodd"/></g></g><path d="M80 239.812C80 230.534 87.521 223.012 96.7987 223.012L390.22 223.012C399.498 223.012 407.019 230.534 407.019 239.812L407.019 670.238C407.019 679.516 399.498 687.038 390.22 687.038L96.7987 687.038C87.521 687.038 80 679.516 80 670.238Z" fill="#FFFFFF" fill-rule="evenodd"/><path d="M93 257.597C93 246.229 102.215 237.013 113.583 237.013L373.417 237.013C384.785 237.013 394 246.229 394 257.597L394 505.445C394 516.813 384.785 526.029 373.417 526.029L113.583 526.029C102.215 526.029 93 516.813 93 505.445Z" fill="#E8E8E8" fill-rule="evenodd"/><text font-family="Source Sans Pro,Source Sans Pro_MSFontService,sans-serif" font-weight="700" font-size="32" transform="matrix(1 0 0 1.00006 102.252 576)">Cloud Deployer</text><text font-family="Source Sans Pro,Source Sans Pro_MSFontService,sans-serif" font-weight="400" font-size="32" transform="matrix(1 0 0 1.00006 102.252 622)">A robust deployment</text><text font-family="Source Sans Pro,Source Sans Pro_MSFontService,sans-serif" font-weight="400" font-size="32" transform="matrix(1 0 0 1.00006 102.252 661)">platform</text><path d="M188 333.518 243.5 278.015 299 333.518 271.25 333.518 271.25 485.027 215.75 485.027 215.75 333.518Z" stroke="#000000" stroke-width="4.00066" stroke-miterlimit="8" fill="#F8CBAD" fill-rule="evenodd"/><g filter="url(#fx1)" transform="translate(318 54)"><g><path d="M8.09476 25.347C8.09476 15.7905 15.8414 8.04338 25.3974 8.04338L327.621 8.04338C337.177 8.04338 344.924 15.7905 344.924 25.347L344.924 468.686C344.924 478.243 337.177 485.99 327.621 485.99L25.3974 485.99C15.8414 485.99 8.09476 478.243 8.09476 468.686Z" fill="#FFFFFF" fill-rule="evenodd"/></g></g><path d="M331 85.8034C331 76.5252 338.521 69.0038 347.799 69.0038L641.22 69.0038C650.498 69.0038 658.019 76.5252 658.019 85.8034L658.019 516.23C658.019 525.508 650.498 533.029 641.22 533.029L347.799 533.029C338.521 533.029 331 525.508 331 516.23Z" fill="#FFFFFF" fill-rule="evenodd"/><path d="M344 102.588C344 91.2201 353.215 82.0045 364.582 82.0045L624.417 82.0045C635.785 82.0045 645 91.2201 645 102.588L645 350.437C645 361.805 635.785 371.021 624.417 371.021L364.582 371.021C353.215 371.021 344 361.805 344 350.437Z" fill="#E8E8E8" fill-rule="evenodd"/><text font-family="Source Sans Pro,Source Sans Pro_MSFontService,sans-serif" font-weight="700" font-size="32" transform="matrix(1 0 0 1.00006 353.372 421)">Data</text><text font-family="Source Sans Pro,Source Sans Pro_MSFontService,sans-serif" font-weight="700" font-size="32" transform="matrix(1 0 0 1.00006 426.051 421)">Highwa</text><text font-family="Source Sans Pro,Source Sans Pro_MSFontService,sans-serif" font-weight="700" font-size="32" transform="matrix(1 0 0 1.00006 533.569 421)">y</text><text font-family="Source Sans Pro,Source Sans Pro_MSFontService,sans-serif" font-weight="400" font-size="32" transform="matrix(1 0 0 1.00006 353.372 467)">A reliable data</text><text font-family="Source Sans Pro,Source Sans Pro_MSFontService,sans-serif" font-weight="400" font-size="32" transform="matrix(1 0 0 1.00006 353.372 506)">pipeline</text><path d="M431.163 163.464C431.308 146.159 460.076 132.371 495.417 132.669 530.758 132.966 559.289 147.236 559.144 164.541L558.089 289.875C557.943 307.18 529.176 320.967 493.835 320.67 458.493 320.372 429.962 306.102 430.108 288.797Z" fill="#D0B6F0" fill-rule="evenodd"/><path d="M559.144 164.541C558.998 181.846 530.23 195.633 494.889 195.336 459.548 195.038 431.017 180.769 431.163 163.464" stroke="#172C51" stroke-width="4.00066" stroke-miterlimit="8" fill="none" fill-rule="evenodd"/><path d="M431.163 163.464C431.308 146.159 460.076 132.371 495.417 132.669 530.758 132.966 559.289 147.236 559.144 164.541L558.089 289.875C557.943 307.18 529.176 320.967 493.835 320.67 458.493 320.372 429.962 306.102 430.108 288.797Z" stroke="#172C51" stroke-width="4.00066" stroke-miterlimit="8" fill="none" fill-rule="evenodd"/><g filter="url(#fx2)" transform="translate(588 135)"><g><path d="M8.09467 25.3515C8.09467 15.795 15.8413 8.04791 25.3973 8.04791L327.621 8.04791C337.177 8.04791 344.924 15.795 344.924 25.3515L344.924 468.691C344.924 478.247 337.177 485.994 327.621 485.994L25.3973 485.994C15.8413 485.994 8.09467 478.247 8.09467 468.691Z" fill="#FFFFFF" fill-rule="evenodd"/></g></g><path d="M601 166.808C601 157.53 608.521 150.008 617.799 150.008L911.22 150.008C920.498 150.008 928.019 157.53 928.019 166.808L928.019 597.234C928.019 606.512 920.498 614.034 911.22 614.034L617.799 614.034C608.521 614.034 601 606.512 601 597.234Z" fill="#FFFFFF" fill-rule="evenodd"/><path d="M614 183.664C614 172.257 623.247 163.009 634.654 163.009L894.346 163.009C905.753 163.009 915 172.257 915 183.664L915 432.37C915 443.777 905.753 453.025 894.346 453.025L634.654 453.025C623.247 453.025 614 443.777 614 432.37Z" fill="#E8E8E8" fill-rule="evenodd"/><text font-family="Source Sans Pro,Source Sans Pro_MSFontService,sans-serif" font-weight="700" font-size="32" transform="matrix(1 0 0 1.00006 623.241 502)">Global Solver</text><text font-family="Source Sans Pro,Source Sans Pro_MSFontService,sans-serif" font-weight="400" font-size="32" transform="matrix(1 0 0 1.00006 623.241 548)">A</text><text font-family="Source Sans Pro,Source Sans Pro_MSFontService,sans-serif" font-weight="400" font-size="32" transform="matrix(1 0 0 1.00006 646.911 548)">fast</text><text font-family="Source Sans Pro,Source Sans Pro_MSFontService,sans-serif" font-weight="400" font-size="32" transform="matrix(1 0 0 1.00006 702.92 548)">and</text><text font-family="Source Sans Pro,Source Sans Pro_MSFontService,sans-serif" font-weight="400" font-size="32" transform="matrix(1 0 0 1.00006 760.763 548)">effective</text><text font-family="Source Sans Pro,Source Sans Pro_MSFontService,sans-serif" font-weight="400" font-size="32" transform="matrix(1 0 0 1.00006 623.241 587)">optimization engine</text><path d="M643 197.011C662.355 293.485 681.711 389.958 724.877 406.337 768.044 422.716 874.15 314.777 902 295.286" stroke="#7D31D6" stroke-width="8.00132" stroke-miterlimit="8" fill="none" fill-rule="evenodd"/><path d="M720 405.522C720 397.514 726.268 391.022 734 391.022 741.732 391.022 748 397.514 748 405.522 748 413.531 741.732 420.023 734 420.023 726.268 420.023 720 413.531 720 405.522Z" fill="#00B0F0" fill-rule="evenodd"/></g></svg>